# xmcd
#
# Track frame offsets:
#	150
#	12073
#	22954
#	37611
#	50822
#	65259
#	81681
#	94437
#	112514
#	123801
#	144572
#	157048
#	170199
#
# Disc length: 2440 seconds
#
# Revision: 1
# Processed by: cddbd v1.5.2PL0 Copyright (c) Steve Scherf et al.
# Submitted via: EZCDAudioConverter 2.1.7.1
#
DISCID=a409860d
DTITLE=Jim Lauderdale - Bluegrass
DYEAR=2006
DGENRE=Country
TTITLE0=Mighty Lonesome
TTITLE1=Time's A Looking Glass
TTITLE2=I'M Still Living For You
TTITLE3=I Shouldn't Want You So Bad
TTITLE4=Who's Leaving Who
TTITLE5=Forever End Today
TTITLE6=Love In The Ruins
TTITLE7=There Goes Bessie Brown
TTITLE8=It Wasn't That I Had To
TTITLE9=It's So Different
TTITLE10=My Treasure
TTITLE11=Don't Blame The Wrong Guy
TTITLE12=I'm Still Living for You
EXTD=
EXTT0=
EXTT1=
EXTT2=
EXTT3=
EXTT4=
EXTT5=
EXTT6=
EXTT7=
EXTT8=
EXTT9=
EXTT10=
EXTT11=
EXTT12=
PLAYORDER=
